<svg xmlns="http://www.w3.org/2000/svg" width="48" height="48" viewBox="0 0 48 48" fill="none">
  <!-- Owl body -->
  <ellipse cx="24" cy="28" rx="16" ry="18" fill="#7c3aed"/>
  <!-- Head -->
  <circle cx="24" cy="16" r="12" fill="#7c3aed"/>
  <!-- Ear tufts -->
  <path d="M14 8 L12 2 L18 7 Z" fill="#6d28d9"/>
  <path d="M34 8 L36 2 L30 7 Z" fill="#6d28d9"/>
  <!-- Eye whites -->
  <circle cx="19" cy="15" r="5" fill="#ede9fe"/>
  <circle cx="29" cy="15" r="5" fill="#ede9fe"/>
  <!-- Pupils -->
  <circle cx="19" cy="15" r="2.5" fill="#1e1b4b"/>
  <circle cx="29" cy="15" r="2.5" fill="#1e1b4b"/>
  <!-- Eye shine -->
  <circle cx="20" cy="14" r="1" fill="white"/>
  <circle cx="30" cy="14" r="1" fill="white"/>
  <!-- Beak -->
  <path d="M22 19 L24 22 L26 19 Z" fill="#fbbf24"/>
  <!-- Feet -->
  <path d="M18 44 L16 46 M18 44 L18 46 M18 44 L20 46" stroke="#fbbf24" stroke-width="1.5" stroke-linecap="round"/>
  <path d="M30 44 L28 46 M30 44 L30 46 M30 44 L32 46" stroke="#fbbf24" stroke-width="1.5" stroke-linecap="round"/>
</svg>
